<svg width="80" height="80" viewBox="0 0 80 80" fill="none" xmlns="http://www.w3.org/2000/svg">
<circle cx="40" cy="40" r="40" fill="white"/>
<path fill-rule="evenodd" clip-rule="evenodd" d="M55.1969 31.4851V40.9702L54.7251 41.2243C54.4655 41.3641 54.053 41.6807 53.8085 41.9278C52.7186 43.0292 52.4336 44.6761 53.089 46.0852C53.3465 46.6387 54.1988 47.5159 54.7555 47.8003L55.1568 48.0052L55.178 50.5895C55.1952 52.6822 55.1762 53.2646 55.0781 53.6517C54.7844 54.8101 53.853 55.5316 52.6632 55.5226C51.8017 55.5161 50.9871 54.9914 50.5555 54.1651C50.3439 53.76 50.3407 53.7293 50.3155 51.9092C50.3016 50.8944 50.3072 50.064 50.3281 50.064C50.3491 50.064 50.6034 50.1715 50.8933 50.303C51.1832 50.4344 51.4376 50.514 51.4585 50.4796C51.4795 50.4454 51.6984 49.9455 51.9452 49.3688C52.2892 48.5647 52.3697 48.3045 52.2905 48.2534C52.2336 48.2168 51.23 47.7724 50.0601 47.2662L47.9332 46.3456L47.9123 50.0448C47.889 54.1654 47.8971 54.2491 48.4217 55.3071C48.946 56.3647 49.8404 57.1882 50.943 57.6286C52.3149 58.1766 53.5768 58.1195 54.9238 57.4486C56.0375 56.894 56.9603 55.7968 57.383 54.525C57.5481 54.0282 57.5599 53.8244 57.5867 50.9945L57.6152 47.9914L58.0684 47.7515C58.9423 47.2891 59.6318 46.398 59.8897 45.3973C60.3032 43.7929 59.5235 42.0242 58.0665 41.2617L57.6052 41.0202L57.605 31.5101L57.6048 22H56.4009H55.1969V31.4851ZM33.1544 27.1084C32.3893 27.272 28.103 28.8611 28.1289 28.9716C28.1402 29.0201 29.0139 30.3695 30.0706 31.9702L31.9917 34.8806L31.5673 35.7362C31.3339 36.2067 30.9541 37.1558 30.7233 37.8451L30.3037 39.0985L29.6474 38.8531C28.0953 38.273 27.6692 38.1449 27.0215 38.0639C25.9549 37.9307 24.7862 38.1311 23.8543 38.6073C23.3978 38.8406 18.9975 41.7942 19 41.8657C19.0009 41.8914 20.9965 42.8403 23.4345 43.9744C25.8727 45.1085 27.8903 46.0575 27.9183 46.0833C27.9463 46.109 28.0534 48.3306 28.1564 51.0202C28.2593 53.7098 28.3671 55.9488 28.3959 55.996C28.4817 56.1363 33.0008 53.045 33.5509 52.4698C34.7423 51.2237 35.2061 49.8056 35.2101 47.3972L35.2115 46.5553L35.8335 46.6048C38.0884 46.7844 39.1356 46.7424 40.7898 46.4062C45.7344 45.4011 49.9218 41.7893 51.6891 37.0053C52.2892 35.3808 52.6513 33.4184 52.6622 31.7324C52.6685 30.745 52.6616 30.7031 52.4072 30.1802C51.9542 29.2486 51.3258 28.7213 50.2414 28.3628C49.387 28.0803 47.9091 27.6967 47.2638 27.5901C45.6854 27.329 43.6172 27.365 41.9895 27.682C41.079 27.8593 39.434 28.3775 38.8876 28.6593L38.5743 28.8208L38.189 28.4723C37.6477 27.9827 36.8857 27.5474 36.1345 27.2988C35.6088 27.1248 35.3105 27.0818 34.4891 27.0619C33.9373 27.0485 33.3367 27.0694 33.1544 27.1084ZM35.7271 29.7718C36.0174 29.909 36.2549 30.0553 36.2549 30.0969C36.2549 30.1385 36.0472 30.3289 35.7934 30.5201C35.5396 30.7112 34.9135 31.2824 34.4022 31.7896L33.4724 32.7118L32.6565 31.4696C32.2077 30.7865 31.8405 30.2053 31.8405 30.178C31.8405 30.1326 33.275 29.6023 33.6464 29.5104C33.7347 29.4885 34.1202 29.4823 34.5031 29.4964C35.0797 29.5177 35.2899 29.565 35.7271 29.7718ZM46.6599 29.9928C47.4521 30.1117 49.5882 30.6726 49.9086 30.8458C49.991 30.8904 50.1166 31.0405 50.1877 31.1793C50.3016 31.4019 50.3056 31.5435 50.2223 32.3733C50.1019 33.5739 49.8773 34.7605 49.6143 35.5859C49.3415 36.4421 48.5736 38.0311 48.068 38.7853C47.6503 39.4085 46.8087 40.4061 46.4383 40.7172L46.2275 40.8942L44.9534 40.1953C42.9222 39.0814 42.3119 38.6053 41.473 37.4803C40.6219 36.3387 40.1139 35.0398 39.9552 33.5987C39.8634 32.7659 39.9329 30.9071 40.059 30.8206C40.2836 30.6663 41.9793 30.1691 42.7466 30.0325C43.8239 29.8407 45.5307 29.8234 46.6599 29.9928ZM37.4844 33.2663C37.5755 34.8757 37.9481 36.2228 38.7249 37.7516C38.7408 37.7829 38.2302 38.161 37.5902 38.592L36.4266 39.3754L37.0832 40.3787C37.5251 41.0541 37.7769 41.3684 37.8532 41.3405C37.9155 41.3177 38.446 40.9717 39.032 40.5716C39.618 40.1715 40.1192 39.8441 40.146 39.8441C40.1727 39.8441 40.4669 40.0841 40.7997 40.3775C41.4723 40.9703 42.3779 41.5833 43.3782 42.123C43.7423 42.3194 44.0402 42.5098 44.0403 42.546C44.0404 42.6436 42.492 43.3653 41.7529 43.6121C40.1398 44.1508 38.4868 44.3538 36.7574 44.2253C34.6815 44.071 31.399 43.804 31.3826 43.7879C31.3569 43.7628 33.1686 38.1497 33.3553 37.6759C33.8091 36.5245 34.6472 35.151 35.5217 34.1259C35.9606 33.6114 37.2694 32.3889 37.3864 32.3841C37.4128 32.3829 37.4568 32.78 37.4844 33.2663ZM43.599 33.0806C43.1134 33.4146 42.6669 33.7171 42.6068 33.7529C42.5236 33.8025 42.6581 34.0608 43.1734 34.8404L43.8491 35.8628L44.8075 35.2178C45.3346 34.863 45.7771 34.5384 45.791 34.4964C45.8123 34.4318 44.5536 32.4537 44.5003 32.4682C44.4902 32.471 44.0846 32.7465 43.599 33.0806ZM28.349 40.9755C28.967 41.2089 29.4875 41.4145 29.5055 41.4324C29.557 41.4836 28.8472 43.7374 28.7796 43.7374C28.6608 43.7374 23.9747 41.5218 23.9747 41.4656C23.9747 41.3525 24.8556 40.82 25.3136 40.6561C25.6888 40.5221 25.9226 40.4953 26.503 40.5202C27.1359 40.5474 27.3644 40.6037 28.349 40.9755ZM56.8607 43.41C57.2265 43.5778 57.4928 43.9348 57.5733 44.3654C57.6086 44.5544 57.5692 44.7365 57.4331 45.0129C56.8538 46.1889 55.1962 45.8075 55.1973 44.4984C55.1977 43.9861 55.4023 43.65 55.8501 43.426C56.2772 43.2124 56.4247 43.21 56.8607 43.41ZM32.001 46.3181L32.7635 46.3735L32.7875 46.8845C32.8006 47.1655 32.7777 47.8284 32.7364 48.3576C32.6543 49.4101 32.4727 49.9487 31.9942 50.5594C31.7149 50.9156 30.7387 51.6542 30.6567 51.5713C30.6131 51.5273 30.4195 47.7024 30.401 46.5212L30.3957 46.1825L30.8171 46.2225C31.0488 46.2446 31.5816 46.2876 32.001 46.3181Z" fill="#205694"/>
</svg>
