<svg width="80" height="80" viewBox="0 0 80 80" fill="none" xmlns="http://www.w3.org/2000/svg">
<circle cx="40" cy="40" r="40" fill="white"/>
<path fill-rule="evenodd" clip-rule="evenodd" d="M38.8515 18.1208C38.0462 18.2979 37.074 18.8277 36.4294 19.4407L35.8728 19.9701L35.2903 19.8138C34.2453 19.5333 32.9434 19.7299 31.9669 20.3158C31.0859 20.8444 30.3211 21.8163 29.9756 22.8465C29.7093 23.6401 29.7083 24.9379 29.9733 25.7277C30.2998 26.7007 30.9398 27.5557 31.7573 28.1113L32.1961 28.4094L32.2246 32.8812C32.2519 37.1691 32.2605 37.3799 32.4317 38.0069C32.8111 39.3966 33.5567 40.7164 34.5182 41.7009L35.0771 42.273V43.1521V44.0313H33.9343C32.5973 44.0313 31.7952 44.1317 30.82 44.421C27.2743 45.4729 24.5966 48.6403 24.088 52.3841C24.0369 52.7598 24 54.4948 24 56.5152C24 59.8407 24.0075 60.0137 24.1652 60.3302C24.2715 60.5436 24.4458 60.722 24.6543 60.8309C24.9754 60.9986 25.1066 61 40.0002 61C54.8939 61 55.0251 60.9986 55.3462 60.8309C55.5547 60.722 55.729 60.5436 55.8353 60.3302C55.993 60.0137 56.0005 59.8412 56 56.5302C55.9995 52.6858 55.9402 51.9746 55.5119 50.6654C54.3839 47.2186 51.5387 44.742 48.0392 44.161C47.6018 44.0884 46.7505 44.0318 46.0926 44.0316L44.9234 44.0313V43.1521V42.273L45.4822 41.7009C46.4454 40.7148 47.1677 39.4365 47.5591 38.025C47.7403 37.3717 47.7463 37.2294 47.7755 32.8902L47.8055 28.4273L48.2482 28.1151C49.0821 27.5272 49.7029 26.6941 50.0271 25.7277C50.2922 24.9379 50.2912 23.6401 50.0249 22.8465C49.6794 21.8163 48.9146 20.8444 48.0336 20.3158C47.0571 19.7299 45.7552 19.5333 44.7101 19.8138L44.1276 19.9701L43.5711 19.4407C42.3149 18.246 40.5398 17.7496 38.8515 18.1208ZM41.1696 20.7839C41.6774 21.022 42.2881 21.5936 42.5055 22.0343C42.9587 22.9531 43.6848 23.166 44.5191 22.6248C45.2294 22.164 45.7418 22.0853 46.4417 22.3295C47.1985 22.5935 47.7952 23.458 47.7952 24.2905C47.7952 25.0262 47.2673 25.8781 46.6447 26.1471C45.4031 26.6837 45.3816 26.7214 45.3485 28.4125L45.3223 29.7507H39.9946H34.6668V28.53C34.6668 26.9063 34.5533 26.6374 33.733 26.3187C32.8215 25.9644 32.3054 25.3272 32.2235 24.4552C32.1123 23.2706 33.1162 22.1743 34.2917 22.1968C34.6851 22.2043 34.9694 22.3091 35.5284 22.6524C36.2627 23.1034 36.9082 22.9667 37.3502 22.2667C37.9655 21.2921 38.3497 20.9442 39.1223 20.6616C39.7166 20.4443 40.5513 20.4942 41.1696 20.7839ZM45.3323 34.4339C45.3305 36.9449 45.2632 37.4127 44.7482 38.4871C44.268 39.489 43.3584 40.4202 42.3798 40.9118C40.7998 41.7056 39.2007 41.7056 37.6207 40.9118C36.6421 40.4202 35.7324 39.489 35.2523 38.4871C34.7373 37.4127 34.6699 36.9449 34.6682 34.4339L34.6668 32.2708H40.0002H45.3336L45.3323 34.4339ZM40.0002 43.9748C41.0383 43.9748 41.3827 43.9428 41.8738 43.8008L42.4757 43.6267L42.4475 44.9841C42.4233 46.1455 42.3944 46.3966 42.2472 46.7237C41.9961 47.2818 41.6104 47.6893 41.0819 47.9551C40.6974 48.1483 40.5076 48.1895 40.0002 48.1895C38.9743 48.1895 38.1795 47.671 37.7532 46.7237C37.606 46.3966 37.5771 46.1455 37.553 44.9841L37.5248 43.6267L38.1267 43.8008C38.6178 43.9428 38.9622 43.9748 40.0002 43.9748ZM35.3032 47.1604C35.9431 49.362 38.0492 50.8686 40.2874 50.7258C40.6485 50.7028 41.0085 50.6573 41.0874 50.6247C41.223 50.5689 41.231 50.7875 41.231 54.5227V58.4799H36.7181H32.2052V56.7965C32.2052 55.2751 32.1893 55.0811 32.0401 54.7816C31.8543 54.4088 31.3816 54.1117 30.9745 54.1117C30.5673 54.1117 30.0946 54.4088 29.9088 54.7816C29.7596 55.0811 29.7437 55.2751 29.7437 56.7965V58.4799H28.0963H26.4489L26.4804 55.4768C26.5119 52.4951 26.5137 52.4684 26.734 51.7338C27.4481 49.3529 29.1416 47.5792 31.3589 46.8897C32.2195 46.622 32.61 46.5722 33.9325 46.5613L35.1262 46.5514L35.3032 47.1604ZM48.4768 46.8358C50.8475 47.5629 52.5322 49.2856 53.2665 51.7338C53.4868 52.4684 53.4886 52.4951 53.52 55.4768L53.5516 58.4799H51.9042H50.2568V56.7965C50.2568 55.2751 50.2409 55.0811 50.0916 54.7816C49.9059 54.4088 49.4332 54.1117 49.026 54.1117C48.6189 54.1117 48.1462 54.4088 47.9604 54.7816C47.8111 55.0811 47.7952 55.2751 47.7952 56.7965V58.4799H45.7439H43.6926V53.7759V49.0719L43.9788 48.6641C44.3221 48.1748 44.6311 47.4986 44.7666 46.9402L44.8658 46.5312L46.31 46.5727C47.5597 46.6087 47.8516 46.6441 48.4768 46.8358ZM37.7652 53.4449C37.4188 53.6321 37.1284 54.1278 37.1284 54.5317C37.1284 54.9486 37.4186 55.4325 37.7827 55.6227C37.9607 55.7157 38.2202 55.7918 38.3592 55.7918C38.9835 55.7918 39.59 55.1709 39.59 54.5317C39.59 54.1149 39.2998 53.631 38.9357 53.4408C38.5314 53.2297 38.1611 53.2309 37.7652 53.4449Z" fill="#205694"/>
</svg>
