<svg width="80" height="80" viewBox="0 0 80 80" fill="none" xmlns="http://www.w3.org/2000/svg">
<circle cx="40" cy="40" r="40" fill="white"/>
<path fill-rule="evenodd" clip-rule="evenodd" d="M55.5249 22.0832C55.259 22.2047 54.9567 22.56 54.7672 22.9738C54.6496 23.2307 54.622 23.4304 54.6219 24.03C54.6218 24.4366 54.6457 24.8572 54.6751 24.9647C54.7261 25.1516 54.7199 25.1578 54.5344 25.1064C54.4278 25.0769 54.0103 25.0528 53.6068 25.0528C53.0072 25.053 52.814 25.0804 52.5501 25.2025C51.4886 25.6936 51.0571 26.7832 51.3406 28.2565L51.3749 28.4343L50.4469 28.4325C49.571 28.4308 49.4966 28.4418 49.1218 28.6272C48.6915 28.8402 48.3865 29.1459 48.1392 29.6121C47.9974 29.8795 47.9816 30.0074 47.9816 30.8822V31.8549L47.742 31.8096C47.371 31.7394 46.4606 31.756 46.1567 31.8385C45.4837 32.0211 44.8965 32.6002 44.6966 33.2783C44.5832 33.6631 44.5644 34.4489 44.6571 34.9318C44.7123 35.2202 44.7075 35.2346 44.5666 35.1997C44.0901 35.0816 43.3434 35.0743 42.9141 35.1836C42.1228 35.3849 41.6592 35.8168 41.6086 36.3998C41.5689 36.8573 41.7464 37.1826 42.1493 37.3908C42.5463 37.596 42.7276 37.5905 43.1806 37.3596C43.5442 37.1741 43.5638 37.1719 44.0551 37.2592C45.4349 37.5046 45.7261 37.5042 46.2171 37.2563C46.3612 37.1835 46.5648 36.9934 46.6695 36.8339C46.9122 36.4644 46.9565 35.8513 46.8001 35.0242C46.6578 34.2714 46.6558 33.8961 46.794 33.8427C46.8518 33.8203 47.2947 33.8727 47.7781 33.9593C48.7405 34.1314 49.1075 34.1172 49.5482 33.8906C49.9858 33.6657 50.2526 33.1729 50.2526 32.5897C50.2526 32.4295 50.1876 31.9398 50.1082 31.5015C50.0287 31.0632 49.9806 30.6604 50.0011 30.6063C50.0519 30.4731 50.5193 30.4793 51.2039 30.6219C52.3015 30.8506 53.0818 30.64 53.3874 30.0326C53.6036 29.6028 53.6275 29.2504 53.4918 28.4922C53.4234 28.1099 53.3663 27.6545 53.3649 27.4802C53.3623 27.1728 53.3691 27.1627 53.5917 27.1411C53.7179 27.1288 54.0594 27.1685 54.3504 27.2291C55.0801 27.3812 55.8028 27.3706 56.1702 27.2025C56.6295 26.9924 56.8504 26.5959 56.8806 25.9278C56.895 25.6066 56.8595 25.1642 56.7932 24.8413C56.6428 24.1088 56.6514 23.8539 56.8346 23.6042C57.0393 23.3253 57.0458 22.7699 56.8478 22.5026C56.517 22.0562 55.9663 21.8815 55.5249 22.0832ZM41.3027 22.9226C41.1569 23.0217 41.0147 23.2099 40.9299 23.416C40.8094 23.709 40.8031 23.7894 40.8773 24.0832C41.0443 24.7431 41.1006 25.5895 41.0267 26.3293C40.8289 28.3121 40.048 29.9351 38.4144 31.759C37.9218 32.309 37.8467 32.477 37.9034 32.903C37.9545 33.2873 38.182 33.5746 38.5459 33.7147C39.0883 33.9234 39.2935 33.8359 40.0155 33.0876C42.208 30.8153 43.384 27.7203 43.1221 24.9113C43.0415 24.0468 42.9142 23.4772 42.7426 23.2132C42.4483 22.7608 41.749 22.6196 41.3027 22.9226ZM46.8478 25.0195C45.9493 25.2113 45.7402 26.4336 46.5224 26.9217C46.9411 27.183 47.6192 27.0526 47.907 26.6554C48.1121 26.3723 48.1384 25.7856 47.9589 25.4952C47.7199 25.1087 47.2909 24.925 46.8478 25.0195ZM36.1301 26.6542C35.2735 27.2309 35.6677 28.5526 36.6963 28.5526C37.2563 28.5526 37.6636 28.1785 37.721 27.6114C37.7827 27.0006 37.3184 26.4944 36.6963 26.4944C36.4708 26.4944 36.2929 26.5446 36.1301 26.6542ZM31.3642 32.1882C31.2564 32.2598 31.1248 32.3808 31.0718 32.4572C31.0187 32.5335 28.957 38.0117 26.4903 44.6311C22.9646 54.0924 22.0043 56.7379 22.0002 57.001C21.9945 57.3635 22.1232 57.5996 22.468 57.8589C22.9075 58.1896 22.4613 58.3417 35.2987 53.4849C46.0112 49.4319 47.2386 48.9521 47.4676 48.7277C47.7857 48.4159 47.8673 48.0426 47.7043 47.6448C47.6225 47.4451 45.6087 45.3704 40.2053 39.9186C36.1423 35.8194 32.6954 32.3735 32.5455 32.2612C32.2116 32.0111 31.6802 31.9782 31.3642 32.1882ZM54.2706 32.4805C53.7742 32.5876 53.4553 32.9854 53.4553 33.4975C53.4553 34.1048 53.8763 34.5218 54.4885 34.521C55.0949 34.5202 55.4926 34.116 55.4926 33.5005C55.4926 32.8169 54.9212 32.34 54.2706 32.4805ZM36.7325 40.1897C37.1225 43.222 38.3225 46.3288 40.0299 48.7267C40.2333 49.0125 40.3998 49.2564 40.3998 49.2688C40.3998 49.3335 35.9945 50.9416 35.9084 50.9083C35.7331 50.8405 34.6786 49.5199 34.1062 48.6515C32.646 46.4359 31.75 44.0153 31.3778 41.2811C31.3277 40.9132 31.2853 39.9784 31.2837 39.2039L31.2807 37.7957L31.8005 36.4008L32.3203 35.006L34.4721 37.1754L36.6239 39.3447L36.7325 40.1897ZM52.908 36.7483C51.3798 37.0338 50.6645 37.2657 49.5472 37.8383C48.6278 38.3093 47.7722 38.9049 46.8793 39.6956C46.1916 40.3045 46.0483 40.5248 46.0483 40.9731C46.0483 41.568 46.4746 41.997 47.0658 41.997C47.4643 41.997 47.5647 41.9385 48.2365 41.3152C49.2555 40.3697 50.587 39.5658 51.7804 39.1757C52.9055 38.8078 54.3048 38.7144 55.4314 38.9319C56.1259 39.066 56.3069 39.0372 56.6442 38.7388C57.116 38.3214 57.119 37.6246 56.6508 37.2105C56.2867 36.8883 55.6207 36.7571 54.2357 36.7345C53.6015 36.7241 53.0041 36.7303 52.908 36.7483ZM44.7481 47.6251C44.6793 47.6872 42.6135 48.4632 42.517 48.4632C42.4748 48.4632 42.2358 48.186 41.9858 47.8471C40.7179 46.1282 39.7863 44.1786 39.2356 42.0908C39.2152 42.0134 40.4586 43.2166 41.9987 44.7646C43.5389 46.3126 44.7761 47.5998 44.7481 47.6251ZM29.641 43.5013C30.1876 46.07 31.5651 48.9517 33.2681 51.089C33.5394 51.4295 33.761 51.7305 33.7604 51.7579C33.7598 51.7853 32.7994 52.1685 31.6262 52.6094C29.7693 53.3072 29.482 53.3972 29.4085 53.3045C28.3076 51.916 27.872 51.2707 27.2813 50.1531L26.9277 49.4842L28.0712 46.4212C28.7002 44.7366 29.2662 43.2217 29.3292 43.0547C29.3922 42.8878 29.4545 42.7621 29.4677 42.7754C29.4809 42.7886 29.5589 43.1153 29.641 43.5013ZM52.6285 42.9795C51.907 43.2686 51.7366 44.211 52.3135 44.7214C53.0224 45.3485 54.026 44.8666 54.026 43.899C54.026 43.2203 53.2697 42.7226 52.6285 42.9795ZM26.358 52.7239C26.5578 53.0333 26.877 53.4871 27.0676 53.7324C27.2582 53.9778 27.4036 54.1875 27.3908 54.1984C27.3397 54.2425 24.8682 55.1569 24.852 55.1377C24.828 55.1094 25.9496 52.1158 25.9746 52.1411C25.9857 52.1522 26.1583 52.4145 26.358 52.7239Z" fill="#205694"/>
</svg>
