<svg width="80" height="80" viewBox="0 0 80 80" fill="none" xmlns="http://www.w3.org/2000/svg">
<circle cx="40" cy="40" r="40" fill="white"/>
<path fill-rule="evenodd" clip-rule="evenodd" d="M27.5271 28.0707C27.0808 28.1999 26.6486 28.8239 26.6498 29.3372C26.651 29.8724 26.7057 29.9397 29.0952 32.3477L31.3954 34.6657L29.0952 36.9836C27.1637 38.9301 26.7835 39.3442 26.7226 39.5683C26.6827 39.715 26.65 40.3528 26.6498 40.9857L26.6494 42.1363L25.8355 42.1378C25.19 42.1389 24.9661 42.1646 24.7532 42.2617C24.4278 42.4101 24.1534 42.7231 24.0563 43.0565C24.0073 43.225 23.9909 44.5439 24.0047 47.2057L24.0251 51.1078L24.1827 51.3624C24.2694 51.5025 24.4616 51.6976 24.6097 51.796L24.8791 51.9749L35.6801 51.9951C43.2305 52.0092 46.7011 51.9931 47.212 51.9415C48.6867 51.7925 49.8821 51.4501 51.2647 50.7805C55.011 48.9663 57.4959 45.3913 57.9455 41.1691C58.0932 39.7811 57.954 39.2272 57.3648 38.8594C57.1249 38.7097 57.043 38.7 55.8489 38.6802L54.5866 38.6593L51.9955 36.0685C49.8094 33.8826 49.3629 33.4662 49.1387 33.405C48.9709 33.3591 48.0163 33.3322 46.5495 33.332L44.226 33.3316L41.633 30.7365C39.4443 28.5459 38.9986 28.1301 38.7743 28.0688C38.4343 27.9759 27.8484 27.9777 27.5271 28.0707ZM39.1065 31.9976L40.434 33.3316H37.1453H33.8567L32.5292 31.9976L31.2017 30.6635H34.4903H37.779L39.1065 31.9976ZM49.4709 37.3337L50.7984 38.6678L48.4737 38.6682C46.9919 38.6684 46.0526 38.6951 45.8832 38.7418C45.6642 38.8022 45.3251 39.1068 43.9537 40.4757L42.2899 42.1363H35.7984H29.3069V41.3529V40.5696L31.5821 38.2846L33.8572 35.9997H41.0003H48.1434L49.4709 37.3337ZM55.2178 41.4941C55.2178 41.7739 54.9013 42.9153 54.6566 43.5185C54.1605 44.7406 53.429 45.8034 52.4171 46.7721C51.1537 47.9818 49.7261 48.7383 47.9228 49.1538L47.2784 49.3023L36.9639 49.3228L26.6494 49.3435V47.0749V44.8064L34.9375 44.7887L43.2257 44.7711L43.4914 44.6256C43.6376 44.5456 44.4595 43.7727 45.318 42.908L46.8787 41.3359H51.0482H55.2178V41.4941Z" fill="#205694"/>
</svg>
