<svg width="80" height="80" viewBox="0 0 80 80" fill="none" xmlns="http://www.w3.org/2000/svg">
<circle cx="40" cy="40" r="40" fill="white"/>
<path fill-rule="evenodd" clip-rule="evenodd" d="M30.3173 21.108C28.0732 21.5358 26.1402 22.7979 24.9126 24.6369C22.7582 27.8643 23.143 31.9925 25.867 34.8749L26.4148 35.4546L25.4512 35.9365C24.9213 36.2016 24.1554 36.6693 23.7492 36.9759L23.0108 37.5334L20.8982 37.5591C18.539 37.5879 18.4986 37.5979 18.1591 38.2297C18.0113 38.5048 18 38.7891 18 42.2455C18 45.4998 18.0174 46.0019 18.1395 46.2587C18.31 46.6174 18.6718 46.8861 19.0714 46.9508L19.3709 46.9994L19.3944 52.086C19.4174 57.071 19.4214 57.1774 19.595 57.4095C19.6925 57.5397 19.8789 57.7259 20.0095 57.8231L20.2468 58H39.998H59.7492L59.9866 57.8231C60.1171 57.7259 60.3036 57.5397 60.401 57.4095C60.5747 57.1774 60.5786 57.071 60.6016 52.086L60.6251 46.9994L60.9247 46.9508C61.3242 46.8861 61.686 46.6174 61.8566 46.2587C61.9786 46.0019 61.996 45.4998 61.996 42.2455C61.996 37.2185 62.2304 37.5973 59.0979 37.5591L56.9852 37.5334L56.2468 36.9792C55.8406 36.6743 55.2668 36.3 54.9716 36.1472C54.6764 35.9943 54.4374 35.8501 54.4405 35.8265C54.4436 35.8029 54.6758 35.5986 54.9567 35.3726C56.1463 34.4149 57.244 32.6442 57.6265 31.0658C58.0042 29.5068 57.8513 27.565 57.2304 26.04C56.3949 23.9872 54.4675 22.1715 52.3636 21.4553C47.7058 19.8697 42.8545 22.5632 41.6564 27.3999C41.5565 27.8032 41.5139 28.3406 41.5153 29.1787C41.5169 30.1928 41.5516 30.5079 41.7381 31.2049C42.0144 32.2377 42.5242 33.2722 43.1808 34.1324L43.6882 34.7971H40.726C39.0968 34.7971 37.7638 34.7769 37.7638 34.7522C37.7638 34.7275 37.9718 34.4348 38.2259 34.1019C41.8114 29.404 39.3472 22.5997 33.5533 21.1999C32.769 21.0104 31.0805 20.9625 30.3173 21.108ZM33.3814 23.8181C34.2944 24.1207 35.0064 24.5651 35.7038 25.2677C38.3824 27.9659 37.6206 32.4533 34.1909 34.1789C32.959 34.7988 31.3634 34.9269 30.0713 34.5099C27.4275 33.6565 25.7617 31.0542 26.1634 28.4049C26.5343 25.9591 28.2503 24.1691 30.7235 23.6479C31.3421 23.5176 32.7461 23.6074 33.3814 23.8181ZM50.7959 23.6945C52.7887 24.1054 54.3173 25.4758 55.0009 27.464C55.2013 28.0467 55.2368 28.2907 55.2382 29.0929C55.2407 30.5412 54.8535 31.6573 53.9837 32.7089C53.2352 33.6137 52.0263 34.371 50.9111 34.6335C50.3042 34.7763 49.0261 34.7763 48.4191 34.6335C46.8653 34.2678 45.3887 33.1116 44.679 31.7049C44.2063 30.768 44.0856 30.2417 44.0892 29.1358C44.092 28.3036 44.1283 28.041 44.3215 27.4565C45.2256 24.7205 47.9878 23.1155 50.7959 23.6945ZM41.819 38.0977C40.1554 39.8523 39.1898 41.8089 38.8341 44.1469C38.7363 44.7893 38.71 46.074 38.7096 50.2163L38.7091 55.4708L33.1022 55.4487L27.4952 55.4267L27.4523 52.3816C27.4127 49.5734 27.3966 49.3178 27.2462 49.0962C26.7137 48.3119 25.5077 48.4194 25.0677 49.2903C24.8786 49.6646 24.8744 49.7363 24.8744 52.5713V55.4696H23.4136H21.9528V51.2236V46.9776L22.6187 46.9763C24.7152 46.9723 26.4568 45.7807 27.1929 43.8467C27.4973 43.0468 27.5326 41.7971 27.2753 40.9317C27.0657 40.2268 26.6531 39.5134 26.1451 38.9768L25.8386 38.6533L26.2169 38.432C26.8575 38.0572 27.7983 37.6988 28.5664 37.537C29.2347 37.3963 29.8857 37.382 35.9042 37.3765L42.5087 37.3705L41.819 38.0977ZM51.2668 37.5064C52.0798 37.6603 53.0546 38.0159 53.7345 38.4066C54.1841 38.6649 54.1905 38.674 54.0114 38.7993C53.6282 39.0672 52.9722 40.137 52.7449 40.8647C52.5473 41.4974 52.5264 41.6811 52.5641 42.456C52.6304 43.8172 53.0376 44.7214 54.0142 45.6761C54.8619 46.5047 56.0754 46.9738 57.3773 46.9763L58.0433 46.9776V51.2236V55.4696H56.5825H55.1216V52.5713C55.1216 49.7363 55.1174 49.6646 54.9283 49.2903C54.5702 48.5813 53.7811 48.3613 53.1023 48.7812C52.5845 49.1016 52.5906 49.062 52.5438 52.3816L52.5008 55.4267L46.8939 55.4487L41.287 55.4708V50.249C41.287 44.5202 41.3095 44.1949 41.7992 42.8555C42.7873 40.1528 45.1152 38.1245 47.9036 37.5365C48.8345 37.3403 50.3185 37.327 51.2668 37.5064ZM23.6332 40.319C25.2897 41.0889 25.2897 43.4307 23.6332 44.2006C23.2371 44.3848 23.0832 44.4026 21.8883 44.4034L20.5779 44.4042V42.2598V40.1154L21.8883 40.1162C23.0832 40.117 23.2371 40.1348 23.6332 40.319ZM59.4181 42.2598V44.4042L58.1077 44.4034C56.9129 44.4026 56.759 44.3848 56.3628 44.2006C55.3684 43.7384 54.8959 42.6458 55.2214 41.5614C55.3626 41.0908 55.8547 40.5551 56.3628 40.319C56.759 40.1348 56.9129 40.117 58.1077 40.1162L59.4181 40.1154V42.2598Z" fill="#205694"/>
</svg>
