<svg width="102" height="177" viewBox="0 0 102 177" fill="none" xmlns="http://www.w3.org/2000/svg">
<circle cx="14.5" cy="14.5" r="14.5" fill="#FFC42C"/>
<circle cx="14.5" cy="14.5" r="14.5" fill="url(#paint0_linear_7_35)" fill-opacity="0.4"/>
<path d="M14.0736 11.255L11.8086 12.8V11.045L14.2986 9.275H16.0836V20H14.0736V11.255Z" fill="#205694"/>
<circle cx="48.5" cy="40.5" r="14.5" fill="#D6E4F1"/>
<circle cx="48.5" cy="40.5" r="14.5" fill="url(#paint1_linear_7_35)" fill-opacity="0.4"/>
<path d="M44.3598 45.64L48.4098 41.365C49.4998 40.215 50.0448 39.2 50.0448 38.32C50.0448 37.81 49.9048 37.41 49.6248 37.12C49.3448 36.83 48.9498 36.685 48.4398 36.685C47.3298 36.685 46.6898 37.395 46.5198 38.815H44.6898C44.7598 37.635 45.1248 36.725 45.7848 36.085C46.4548 35.445 47.3598 35.125 48.4998 35.125C49.5998 35.125 50.4648 35.415 51.0948 35.995C51.7248 36.575 52.0398 37.34 52.0398 38.29C52.0398 38.95 51.8598 39.59 51.4998 40.21C51.1498 40.82 50.6298 41.46 49.9398 42.13L47.5548 44.455H52.1148V46H44.3598V45.64Z" fill="#205694"/>
<circle cx="58.5" cy="77.5" r="14.5" fill="#D6E4F1"/>
<circle cx="58.5" cy="77.5" r="14.5" fill="url(#paint2_linear_7_35)" fill-opacity="0.4"/>
<path d="M57.8579 83.15C56.6079 83.15 55.6329 82.835 54.9329 82.205C54.2329 81.575 53.8629 80.735 53.8229 79.685H55.6379C55.6979 80.285 55.9029 80.765 56.2529 81.125C56.6029 81.475 57.1229 81.65 57.8129 81.65C59.1729 81.65 59.8529 81.07 59.8529 79.91C59.8529 78.74 59.2079 78.155 57.9179 78.155H57.0929V76.73H57.8579C59.0479 76.73 59.6429 76.205 59.6429 75.155C59.6429 74.695 59.4979 74.33 59.2079 74.06C58.9279 73.78 58.5179 73.64 57.9779 73.64C57.4179 73.64 56.9579 73.8 56.5979 74.12C56.2479 74.43 56.0429 74.86 55.9829 75.41H54.2129C54.2729 74.45 54.6379 73.665 55.3079 73.055C55.9879 72.435 56.8879 72.125 58.0079 72.125C59.0979 72.125 59.9579 72.4 60.5879 72.95C61.2279 73.49 61.5479 74.175 61.5479 75.005C61.5479 76.115 60.9679 76.895 59.8079 77.345C60.4579 77.495 60.9629 77.79 61.3229 78.23C61.6929 78.67 61.8779 79.24 61.8779 79.94C61.8779 80.93 61.5129 81.715 60.7829 82.295C60.0629 82.865 59.0879 83.15 57.8579 83.15Z" fill="#205694"/>
<circle cx="67.5" cy="125.5" r="14.5" fill="#D6E4F1"/>
<circle cx="67.5" cy="125.5" r="14.5" fill="url(#paint3_linear_7_35)" fill-opacity="0.4"/>
<path d="M67.941 128.825H62.631V128.12L67.371 120.275H69.876V127.34H71.316V128.825H69.876V131H67.941V128.825ZM67.971 127.34V121.79L64.761 127.34H67.971Z" fill="#205694"/>
<circle cx="87.5" cy="162.5" r="14.5" fill="#D6E4F1"/>
<circle cx="87.5" cy="162.5" r="14.5" fill="url(#paint4_linear_7_35)" fill-opacity="0.4"/>
<path d="M86.802 168.15C85.592 168.15 84.667 167.855 84.027 167.265C83.387 166.675 83.037 165.895 82.977 164.925H84.837C84.927 165.485 85.112 165.905 85.392 166.185C85.682 166.465 86.147 166.605 86.787 166.605C87.397 166.605 87.872 166.41 88.212 166.02C88.552 165.63 88.722 165.1 88.722 164.43C88.722 163.78 88.547 163.265 88.197 162.885C87.857 162.505 87.387 162.315 86.787 162.315C85.837 162.315 85.092 162.625 84.552 163.245H83.532L83.622 157.275H90.132V158.85H85.152L85.137 161.76C85.657 161.16 86.427 160.86 87.447 160.86C88.427 160.86 89.222 161.185 89.832 161.835C90.442 162.485 90.747 163.36 90.747 164.46C90.747 165.59 90.382 166.49 89.652 167.16C88.922 167.82 87.972 168.15 86.802 168.15Z" fill="#205694"/>
<path d="M30.0324 51.5L30.429 51.8044C30.5512 51.6452 30.5663 51.4283 30.4674 51.2536C30.3685 51.079 30.1748 50.9804 29.9753 51.0033L30.0324 51.5ZM38.0322 83L38.4589 83.2607C38.5353 83.1356 38.553 82.9833 38.5073 82.844C38.4615 82.7047 38.3569 82.5925 38.2212 82.5371L38.0322 83ZM45.5322 126.5L45.9794 126.724C46.091 126.5 46.021 126.229 45.8155 126.088L45.5322 126.5ZM67.0322 168.5L62.3686 165.097L61.7529 170.837L67.0322 168.5ZM0.533251 29.9701C0.512521 30.3155 0.50118 30.6732 0.500087 31.0414L1.50008 31.0444C1.50112 30.6948 1.51189 30.3561 1.53146 30.0299L0.533251 29.9701ZM0.60503 33.1842C0.673369 33.872 0.776644 34.5818 0.919442 35.3051L1.9005 35.1114C1.76402 34.4201 1.66537 33.7419 1.60013 33.0853L0.60503 33.1842ZM1.43437 37.3853C1.63522 38.0566 1.87218 38.7324 2.14874 39.4062L3.07384 39.0265C2.81027 38.3844 2.58419 37.7397 2.39241 37.0987L1.43437 37.3853ZM3.06384 41.3463C3.39707 41.9669 3.76792 42.5802 4.17925 43.1807L5.00426 42.6156C4.61397 42.0458 4.26171 41.4633 3.94488 40.8732L3.06384 41.3463ZM5.48974 44.8832C5.94943 45.4159 6.44666 45.9327 6.98369 46.4291L7.66248 45.6948C7.1536 45.2244 6.68246 44.7347 6.24686 44.2299L5.48974 44.8832ZM8.644 47.7997C9.20588 48.2132 9.80242 48.606 10.4352 48.9747L10.9387 48.1107C10.3366 47.7599 9.76993 47.3867 9.23679 46.9943L8.644 47.7997ZM12.3429 49.9596C12.9735 50.2464 13.6342 50.5111 14.3262 50.7516L14.6545 49.807C13.991 49.5765 13.3589 49.3231 12.7569 49.0493L12.3429 49.9596ZM16.3771 51.3673C17.0451 51.5381 17.7386 51.688 18.4584 51.8155L18.6327 50.8308C17.937 50.7076 17.268 50.5629 16.6248 50.3985L16.3771 51.3673ZM20.5607 52.1141C21.2446 52.1885 21.9499 52.2439 22.677 52.2792L22.7255 51.2804C22.0177 51.246 21.3323 51.1921 20.6687 51.12L20.5607 52.1141ZM24.797 52.3248C25.4845 52.3217 26.1899 52.3017 26.9137 52.264L26.8617 51.2653C26.1533 51.3022 25.4637 51.3218 24.7924 51.3248L24.797 52.3248ZM29.0228 52.1085C29.3742 52.0752 29.7298 52.038 30.0894 51.9967L29.9753 51.0033C29.6222 51.0438 29.2733 51.0803 28.9285 51.113L29.0228 52.1085ZM29.6357 51.1956C29.4402 51.4503 29.2442 51.7161 29.0487 51.9922L29.8649 52.57C30.0531 52.3042 30.2415 52.0487 30.429 51.8044L29.6357 51.1956ZM27.9638 53.6471C27.6309 54.1954 27.3058 54.7717 26.9945 55.3722L27.8823 55.8325C28.1831 55.2524 28.4971 54.6956 28.8186 54.166L27.9638 53.6471ZM26.1436 57.1595C25.8839 57.757 25.6411 58.3722 25.42 59.0021L26.3635 59.3334C26.5763 58.7273 26.8102 58.1345 27.0607 57.558L26.1436 57.1595ZM24.8359 60.8975C24.6671 61.5344 24.5232 62.1825 24.409 62.8388L25.3942 63.0102C25.5032 62.3841 25.6407 61.7642 25.8025 61.1537L24.8359 60.8975ZM24.1609 64.8157C24.1107 65.477 24.0939 66.1436 24.115 66.8125L25.1145 66.781C25.0946 66.1497 25.1104 65.5189 25.158 64.8914L24.1609 64.8157ZM24.2939 68.806C24.3923 69.4614 24.5312 70.116 24.7148 70.7671L25.6772 70.4957C25.5055 69.8864 25.3752 69.2729 25.2828 68.6575L24.2939 68.806ZM25.3844 72.6621C25.6427 73.2647 25.9437 73.8611 26.2908 74.449L27.1519 73.9406C26.8267 73.3898 26.545 72.8316 26.3036 72.2682L25.3844 72.6621ZM27.4164 76.111C27.8109 76.6235 28.2448 77.1269 28.7205 77.6197L29.44 76.9251C28.9896 76.4587 28.5801 75.9835 28.209 75.5011L27.4164 76.111ZM30.1804 78.9845C30.6699 79.3989 31.1933 79.8039 31.7519 80.1982L32.3286 79.3812C31.7931 79.0032 31.293 78.6162 30.8266 78.2213L30.1804 78.9845ZM33.4106 81.2745C33.9586 81.6017 34.5347 81.9201 35.14 82.2289L35.5946 81.3382C35.0082 81.039 34.4515 80.7313 33.9233 80.4159L33.4106 81.2745ZM36.9224 83.0729C37.2231 83.205 37.53 83.3351 37.8433 83.4629L38.2212 82.5371C37.9159 82.4125 37.6171 82.2859 37.3246 82.1574L36.9224 83.0729ZM37.6056 82.7393C37.4306 83.0256 37.2551 83.3239 37.0798 83.6335L37.9501 84.1261C38.12 83.8259 38.2899 83.5373 38.4589 83.2607L37.6056 82.7393ZM36.116 85.462C35.8228 86.0588 35.5345 86.6855 35.255 87.3392L36.1744 87.7323C36.4471 87.0948 36.7281 86.4839 37.0135 85.9029L36.116 85.462ZM34.4897 89.2614C34.2559 89.8939 34.0323 90.5461 33.8218 91.2155L34.7758 91.5155C34.9813 90.862 35.1995 90.2254 35.4277 89.608L34.4897 89.2614ZM33.2511 93.2025C33.0798 93.8604 32.9226 94.5318 32.7818 95.2147L33.7612 95.4166C33.8984 94.751 34.0517 94.0963 34.2188 93.4544L33.2511 93.2025ZM32.4179 97.2524C32.3159 97.9281 32.2314 98.6127 32.1664 99.3048L33.162 99.3983C33.2252 98.7255 33.3074 98.0594 33.4067 97.4016L32.4179 97.2524ZM32.0333 101.372C32.0096 102.058 32.0066 102.749 32.0261 103.444L33.0257 103.416C33.0068 102.743 33.0097 102.072 33.0327 101.406L32.0333 101.372ZM32.1519 105.514C32.2165 106.199 32.3044 106.885 32.4177 107.573L33.4044 107.411C33.295 106.746 33.2099 106.082 33.1475 105.42L32.1519 105.514ZM32.8288 109.609C32.9891 110.277 33.175 110.944 33.3883 111.609L34.3405 111.304C34.135 110.663 33.9558 110.02 33.8012 109.376L32.8288 109.609ZM34.098 113.563C34.3568 114.199 34.6425 114.831 34.9566 115.459L35.8509 115.012C35.5485 114.407 35.2734 113.798 35.0242 113.186L34.098 113.563ZM35.9576 117.281C36.3086 117.866 36.6863 118.446 37.0919 119.02L37.9084 118.442C37.5172 117.889 37.1532 117.33 36.815 116.767L35.9576 117.281ZM38.3512 120.669C38.783 121.194 39.2402 121.713 39.7239 122.225L40.4505 121.537C39.9825 121.043 39.5406 120.541 39.1237 120.034L38.3512 120.669ZM41.1971 123.683C41.6936 124.143 42.2138 124.597 42.7582 125.043L43.3921 124.27C42.8632 123.837 42.3585 123.396 41.8772 122.95L41.1971 123.683ZM44.3953 126.308C44.6743 126.511 44.9588 126.713 45.249 126.912L45.8155 126.088C45.5327 125.894 45.2556 125.697 44.9841 125.5L44.3953 126.308ZM45.085 126.276C44.9418 126.563 44.7996 126.856 44.6587 127.155L45.5635 127.581C45.7011 127.289 45.8398 127.003 45.9794 126.724L45.085 126.276ZM43.8609 128.955C43.6146 129.545 43.3752 130.155 43.1452 130.78L44.0838 131.125C44.3088 130.513 44.543 129.917 44.7838 129.34L43.8609 128.955ZM42.5064 132.638C42.3088 133.254 42.1216 133.883 41.9468 134.523L42.9114 134.786C43.0823 134.161 43.2654 133.546 43.4587 132.943L42.5064 132.638ZM41.4706 136.429C41.327 137.064 41.1969 137.706 41.082 138.355L42.0666 138.53C42.1787 137.897 42.3057 137.269 42.446 136.649L41.4706 136.429ZM40.787 140.3C40.7052 140.95 40.6402 141.604 40.5936 142.261L41.591 142.331C41.6363 141.694 41.6996 141.058 41.7792 140.425L40.787 140.3ZM40.5109 144.231C40.503 144.889 40.5153 145.547 40.5496 146.204L41.5483 146.152C41.5151 145.517 41.5032 144.88 41.5109 144.243L40.5109 144.231ZM40.7212 148.174C40.8019 148.83 40.9068 149.482 41.0376 150.129L42.0178 149.931C41.8922 149.31 41.7914 148.683 41.7137 148.052L40.7212 148.174ZM41.5103 152.055C41.6948 152.69 41.9071 153.317 42.1491 153.936L43.0804 153.572C42.8497 152.982 42.647 152.383 42.4706 151.776L41.5103 152.055ZM42.9602 155.753C43.2573 156.341 43.5848 156.918 43.9442 157.484L44.7881 156.947C44.4466 156.41 44.1354 155.861 43.8527 155.302L42.9602 155.753ZM45.0938 159.107C45.4976 159.621 45.9318 160.122 46.3979 160.608L47.1198 159.916C46.6765 159.454 46.2637 158.977 45.8801 158.489L45.0938 159.107ZM47.8394 161.975C48.3302 162.399 48.8495 162.809 49.3982 163.203L49.982 162.391C49.4569 162.014 48.961 161.623 48.4928 161.218L47.8394 161.975ZM51.054 164.292C51.6065 164.624 52.1842 164.943 52.788 165.247L53.2376 164.353C52.6555 164.06 52.0997 163.754 51.5692 163.435L51.054 164.292ZM54.5848 166.075C55.1787 166.325 55.7947 166.562 56.4334 166.786L56.7645 165.843C56.1445 165.625 55.5475 165.395 54.9729 165.153L54.5848 166.075ZM58.2999 167.384C58.9118 167.562 59.5425 167.729 60.1923 167.884L60.4247 166.912C59.7902 166.76 59.1753 166.597 58.5794 166.424L58.2999 167.384ZM62.1134 168.298C62.7471 168.421 63.3975 168.533 64.065 168.634L64.2152 167.645C63.5604 167.546 62.9231 167.436 62.3029 167.317L62.1134 168.298Z" fill="white"/>
<path d="M30.0324 51.5L30.429 51.8044C30.5512 51.6452 30.5663 51.4283 30.4674 51.2536C30.3685 51.079 30.1748 50.9804 29.9753 51.0033L30.0324 51.5ZM38.0322 83L38.4589 83.2607C38.5353 83.1356 38.553 82.9833 38.5073 82.844C38.4615 82.7047 38.3569 82.5925 38.2212 82.5371L38.0322 83ZM45.5322 126.5L45.9794 126.724C46.091 126.5 46.021 126.229 45.8155 126.088L45.5322 126.5ZM67.0322 168.5L62.3686 165.097L61.7529 170.837L67.0322 168.5ZM0.533251 29.9701C0.512521 30.3155 0.50118 30.6732 0.500087 31.0414L1.50008 31.0444C1.50112 30.6948 1.51189 30.3561 1.53146 30.0299L0.533251 29.9701ZM0.60503 33.1842C0.673369 33.872 0.776644 34.5818 0.919442 35.3051L1.9005 35.1114C1.76402 34.4201 1.66537 33.7419 1.60013 33.0853L0.60503 33.1842ZM1.43437 37.3853C1.63522 38.0566 1.87218 38.7324 2.14874 39.4062L3.07384 39.0265C2.81027 38.3844 2.58419 37.7397 2.39241 37.0987L1.43437 37.3853ZM3.06384 41.3463C3.39707 41.9669 3.76792 42.5802 4.17925 43.1807L5.00426 42.6156C4.61397 42.0458 4.26171 41.4633 3.94488 40.8732L3.06384 41.3463ZM5.48974 44.8832C5.94943 45.4159 6.44666 45.9327 6.98369 46.4291L7.66248 45.6948C7.1536 45.2244 6.68246 44.7347 6.24686 44.2299L5.48974 44.8832ZM8.644 47.7997C9.20588 48.2132 9.80242 48.606 10.4352 48.9747L10.9387 48.1107C10.3366 47.7599 9.76993 47.3867 9.23679 46.9943L8.644 47.7997ZM12.3429 49.9596C12.9735 50.2464 13.6342 50.5111 14.3262 50.7516L14.6545 49.807C13.991 49.5765 13.3589 49.3231 12.7569 49.0493L12.3429 49.9596ZM16.3771 51.3673C17.0451 51.5381 17.7386 51.688 18.4584 51.8155L18.6327 50.8308C17.937 50.7076 17.268 50.5629 16.6248 50.3985L16.3771 51.3673ZM20.5607 52.1141C21.2446 52.1885 21.9499 52.2439 22.677 52.2792L22.7255 51.2804C22.0177 51.246 21.3323 51.1921 20.6687 51.12L20.5607 52.1141ZM24.797 52.3248C25.4845 52.3217 26.1899 52.3017 26.9137 52.264L26.8617 51.2653C26.1533 51.3022 25.4637 51.3218 24.7924 51.3248L24.797 52.3248ZM29.0228 52.1085C29.3742 52.0752 29.7298 52.038 30.0894 51.9967L29.9753 51.0033C29.6222 51.0438 29.2733 51.0803 28.9285 51.113L29.0228 52.1085ZM29.6357 51.1956C29.4402 51.4503 29.2442 51.7161 29.0487 51.9922L29.8649 52.57C30.0531 52.3042 30.2415 52.0487 30.429 51.8044L29.6357 51.1956ZM27.9638 53.6471C27.6309 54.1954 27.3058 54.7717 26.9945 55.3722L27.8823 55.8325C28.1831 55.2524 28.4971 54.6956 28.8186 54.166L27.9638 53.6471ZM26.1436 57.1595C25.8839 57.757 25.6411 58.3722 25.42 59.0021L26.3635 59.3334C26.5763 58.7273 26.8102 58.1345 27.0607 57.558L26.1436 57.1595ZM24.8359 60.8975C24.6671 61.5344 24.5232 62.1825 24.409 62.8388L25.3942 63.0102C25.5032 62.3841 25.6407 61.7642 25.8025 61.1537L24.8359 60.8975ZM24.1609 64.8157C24.1107 65.477 24.0939 66.1436 24.115 66.8125L25.1145 66.781C25.0946 66.1497 25.1104 65.5189 25.158 64.8914L24.1609 64.8157ZM24.2939 68.806C24.3923 69.4614 24.5312 70.116 24.7148 70.7671L25.6772 70.4957C25.5055 69.8864 25.3752 69.2729 25.2828 68.6575L24.2939 68.806ZM25.3844 72.6621C25.6427 73.2647 25.9437 73.8611 26.2908 74.449L27.1519 73.9406C26.8267 73.3898 26.545 72.8316 26.3036 72.2682L25.3844 72.6621ZM27.4164 76.111C27.8109 76.6235 28.2448 77.1269 28.7205 77.6197L29.44 76.9251C28.9896 76.4587 28.5801 75.9835 28.209 75.5011L27.4164 76.111ZM30.1804 78.9845C30.6699 79.3989 31.1933 79.8039 31.7519 80.1982L32.3286 79.3812C31.7931 79.0032 31.293 78.6162 30.8266 78.2213L30.1804 78.9845ZM33.4106 81.2745C33.9586 81.6017 34.5347 81.9201 35.14 82.2289L35.5946 81.3382C35.0082 81.039 34.4515 80.7313 33.9233 80.4159L33.4106 81.2745ZM36.9224 83.0729C37.2231 83.205 37.53 83.3351 37.8433 83.4629L38.2212 82.5371C37.9159 82.4125 37.6171 82.2859 37.3246 82.1574L36.9224 83.0729ZM37.6056 82.7393C37.4306 83.0256 37.2551 83.3239 37.0798 83.6335L37.9501 84.1261C38.12 83.8259 38.2899 83.5373 38.4589 83.2607L37.6056 82.7393ZM36.116 85.462C35.8228 86.0588 35.5345 86.6855 35.255 87.3392L36.1744 87.7323C36.4471 87.0948 36.7281 86.4839 37.0135 85.9029L36.116 85.462ZM34.4897 89.2614C34.2559 89.8939 34.0323 90.5461 33.8218 91.2155L34.7758 91.5155C34.9813 90.862 35.1995 90.2254 35.4277 89.608L34.4897 89.2614ZM33.2511 93.2025C33.0798 93.8604 32.9226 94.5318 32.7818 95.2147L33.7612 95.4166C33.8984 94.751 34.0517 94.0963 34.2188 93.4544L33.2511 93.2025ZM32.4179 97.2524C32.3159 97.9281 32.2314 98.6127 32.1664 99.3048L33.162 99.3983C33.2252 98.7255 33.3074 98.0594 33.4067 97.4016L32.4179 97.2524ZM32.0333 101.372C32.0096 102.058 32.0066 102.749 32.0261 103.444L33.0257 103.416C33.0068 102.743 33.0097 102.072 33.0327 101.406L32.0333 101.372ZM32.1519 105.514C32.2165 106.199 32.3044 106.885 32.4177 107.573L33.4044 107.411C33.295 106.746 33.2099 106.082 33.1475 105.42L32.1519 105.514ZM32.8288 109.609C32.9891 110.277 33.175 110.944 33.3883 111.609L34.3405 111.304C34.135 110.663 33.9558 110.02 33.8012 109.376L32.8288 109.609ZM34.098 113.563C34.3568 114.199 34.6425 114.831 34.9566 115.459L35.8509 115.012C35.5485 114.407 35.2734 113.798 35.0242 113.186L34.098 113.563ZM35.9576 117.281C36.3086 117.866 36.6863 118.446 37.0919 119.02L37.9084 118.442C37.5172 117.889 37.1532 117.33 36.815 116.767L35.9576 117.281ZM38.3512 120.669C38.783 121.194 39.2402 121.713 39.7239 122.225L40.4505 121.537C39.9825 121.043 39.5406 120.541 39.1237 120.034L38.3512 120.669ZM41.1971 123.683C41.6936 124.143 42.2138 124.597 42.7582 125.043L43.3921 124.27C42.8632 123.837 42.3585 123.396 41.8772 122.95L41.1971 123.683ZM44.3953 126.308C44.6743 126.511 44.9588 126.713 45.249 126.912L45.8155 126.088C45.5327 125.894 45.2556 125.697 44.9841 125.5L44.3953 126.308ZM45.085 126.276C44.9418 126.563 44.7996 126.856 44.6587 127.155L45.5635 127.581C45.7011 127.289 45.8398 127.003 45.9794 126.724L45.085 126.276ZM43.8609 128.955C43.6146 129.545 43.3752 130.155 43.1452 130.78L44.0838 131.125C44.3088 130.513 44.543 129.917 44.7838 129.34L43.8609 128.955ZM42.5064 132.638C42.3088 133.254 42.1216 133.883 41.9468 134.523L42.9114 134.786C43.0823 134.161 43.2654 133.546 43.4587 132.943L42.5064 132.638ZM41.4706 136.429C41.327 137.064 41.1969 137.706 41.082 138.355L42.0666 138.53C42.1787 137.897 42.3057 137.269 42.446 136.649L41.4706 136.429ZM40.787 140.3C40.7052 140.95 40.6402 141.604 40.5936 142.261L41.591 142.331C41.6363 141.694 41.6996 141.058 41.7792 140.425L40.787 140.3ZM40.5109 144.231C40.503 144.889 40.5153 145.547 40.5496 146.204L41.5483 146.152C41.5151 145.517 41.5032 144.88 41.5109 144.243L40.5109 144.231ZM40.7212 148.174C40.8019 148.83 40.9068 149.482 41.0376 150.129L42.0178 149.931C41.8922 149.31 41.7914 148.683 41.7137 148.052L40.7212 148.174ZM41.5103 152.055C41.6948 152.69 41.9071 153.317 42.1491 153.936L43.0804 153.572C42.8497 152.982 42.647 152.383 42.4706 151.776L41.5103 152.055ZM42.9602 155.753C43.2573 156.341 43.5848 156.918 43.9442 157.484L44.7881 156.947C44.4466 156.41 44.1354 155.861 43.8527 155.302L42.9602 155.753ZM45.0938 159.107C45.4976 159.621 45.9318 160.122 46.3979 160.608L47.1198 159.916C46.6765 159.454 46.2637 158.977 45.8801 158.489L45.0938 159.107ZM47.8394 161.975C48.3302 162.399 48.8495 162.809 49.3982 163.203L49.982 162.391C49.4569 162.014 48.961 161.623 48.4928 161.218L47.8394 161.975ZM51.054 164.292C51.6065 164.624 52.1842 164.943 52.788 165.247L53.2376 164.353C52.6555 164.06 52.0997 163.754 51.5692 163.435L51.054 164.292ZM54.5848 166.075C55.1787 166.325 55.7947 166.562 56.4334 166.786L56.7645 165.843C56.1445 165.625 55.5475 165.395 54.9729 165.153L54.5848 166.075ZM58.2999 167.384C58.9118 167.562 59.5425 167.729 60.1923 167.884L60.4247 166.912C59.7902 166.76 59.1753 166.597 58.5794 166.424L58.2999 167.384ZM62.1134 168.298C62.7471 168.421 63.3975 168.533 64.065 168.634L64.2152 167.645C63.5604 167.546 62.9231 167.436 62.3029 167.317L62.1134 168.298Z" fill="url(#paint5_linear_7_35)"/>
<defs>
<linearGradient id="paint0_linear_7_35" x1="14.5" y1="0" x2="14.5" y2="29" gradientUnits="userSpaceOnUse">
<stop stop-color="white"/>
<stop offset="1" stop-color="white" stop-opacity="0"/>
</linearGradient>
<linearGradient id="paint1_linear_7_35" x1="48.5" y1="26" x2="48.5" y2="55" gradientUnits="userSpaceOnUse">
<stop stop-color="white"/>
<stop offset="1" stop-color="white" stop-opacity="0"/>
</linearGradient>
<linearGradient id="paint2_linear_7_35" x1="58.5" y1="63" x2="58.5" y2="92" gradientUnits="userSpaceOnUse">
<stop stop-color="white"/>
<stop offset="1" stop-color="white" stop-opacity="0"/>
</linearGradient>
<linearGradient id="paint3_linear_7_35" x1="67.5" y1="111" x2="67.5" y2="140" gradientUnits="userSpaceOnUse">
<stop stop-color="white"/>
<stop offset="1" stop-color="white" stop-opacity="0"/>
</linearGradient>
<linearGradient id="paint4_linear_7_35" x1="87.5" y1="148" x2="87.5" y2="177" gradientUnits="userSpaceOnUse">
<stop stop-color="white"/>
<stop offset="1" stop-color="white" stop-opacity="0"/>
</linearGradient>
<linearGradient id="paint5_linear_7_35" x1="34.0161" y1="30" x2="34.0161" y2="168.5" gradientUnits="userSpaceOnUse">
<stop stop-color="#FFC530"/>
<stop offset="1" stop-color="white" stop-opacity="0"/>
</linearGradient>
</defs>
</svg>
